<?xml version="1.0" standalone="no"?>
<!DOCTYPE svg PUBLIC "-//W3C//DTD SVG 20010904//EN"
 "http://www.w3.org/TR/2001/REC-SVG-20010904/DTD/svg10.dtd">
<svg version="1.0" xmlns="http://www.w3.org/2000/svg"
 width="209.000000pt" height="209.000000pt" viewBox="0 0 209.000000 209.000000"
 preserveAspectRatio="xMidYMid meet">
<metadata>
Created by potrace 1.14, written by Peter Selinger 2001-2017
</metadata>
<g transform="translate(0.000000,209.000000) scale(0.100000,-0.100000)"
fill="#000000" stroke="none">
<path d="M905 1648 c-144 -26 -292 -85 -384 -152 -148 -107 -204 -197 -204
-331 0 -50 40 -150 67 -167 6 -4 7 -8 2 -8 -11 0 50 -55 86 -77 16 -10 28 -21
28 -25 0 -13 -17 -9 -30 7 -17 20 -35 19 -68 -4 -34 -25 -72 -36 -72 -22 0 6
-8 19 -19 30 -22 22 -62 18 -87 -10 -24 -27 -9 -36 25 -16 36 21 41 21 41 2 0
-22 39 -34 79 -23 60 17 69 17 86 -2 17 -18 17 -21 0 -47 -36 -56 -108 -102
-140 -89 -19 7 -20 36 0 37 8 1 20 2 27 3 6 0 13 7 16 14 3 9 -6 12 -34 9 -65
-8 -86 -65 -35 -92 54 -27 88 -14 157 60 62 67 63 68 93 55 35 -14 37 -21 16
-54 -33 -50 -36 -119 -7 -149 36 -36 98 -22 90 20 -5 24 -37 28 -53 7 -11 -16
-13 -15 -19 12 -4 17 -3 41 2 55 5 13 11 29 12 34 10 39 25 55 51 55 26 0 28
-3 25 -29 -6 -55 10 -59 53 -13 45 47 51 50 51 25 1 -14 4 -12 14 7 11 18 11
30 4 44 -10 19 -13 18 -48 -22 -21 -23 -40 -42 -43 -42 -2 0 -3 14 -1 31 3 26
1 29 -16 24 -30 -9 -64 4 -51 19 6 7 8 16 4 19 -3 4 -1 13 6 21 7 8 8 16 3 18
-5 1 -6 12 -2 24 19 51 217 59 314 14 39 -19 52 -31 68 -69 27 -65 63 -108
115 -140 l44 -28 -23 -15 c-13 -8 -36 -18 -53 -22 -16 -4 -53 -19 -83 -33 -43
-20 -51 -27 -41 -39 6 -8 19 -14 27 -14 12 0 11 -4 -6 -16 -12 -8 -22 -22 -22
-31 0 -13 9 -15 46 -10 26 2 41 1 34 -3 -17 -10 -5 -40 15 -40 9 0 30 7 48 17
18 9 49 17 69 18 45 2 60 14 81 62 28 69 31 78 32 113 3 51 25 90 63 111 19 9
52 37 75 61 28 30 51 44 69 45 15 0 35 8 43 17 9 9 20 14 25 11 12 -7 50 16
94 58 22 20 43 37 47 37 13 0 -43 -133 -77 -186 -19 -28 -56 -73 -84 -100 -55
-54 -65 -76 -22 -48 53 35 212 216 212 243 0 6 5 11 11 11 5 0 8 4 5 8 -3 5 1
26 9 48 18 50 12 208 -8 242 -5 6 -6 12 -2 12 18 0 -76 150 -130 206 -49 51
-222 150 -308 175 -107 32 -313 46 -412 27z m271 -40 c13 -14 -3 -19 -83 -27
-43 -4 -88 -13 -100 -19 -33 -18 -71 -68 -78 -104 -4 -18 -12 -38 -17 -45 -18
-23 9 -21 64 5 31 15 62 28 69 30 8 2 33 12 56 23 39 19 55 44 57 94 1 5 20
15 44 21 36 11 50 10 95 -5 76 -26 212 -97 200 -104 -5 -3 -26 3 -46 13 -45
25 -61 25 -99 3 -23 -14 -88 -92 -88 -107 0 -4 67 -15 126 -21 55 -6 78 12 79
60 0 36 2 38 38 42 36 3 43 0 101 -59 69 -71 134 -183 111 -192 -8 -3 -25 8
-38 24 -33 39 -86 70 -119 70 -30 0 -34 -10 -17 -43 23 -44 52 -67 85 -67 18
0 35 4 38 9 4 5 18 5 36 -2 24 -9 30 -18 36 -54 3 -24 3 -63 0 -87 l-7 -45
-37 6 c-47 6 -92 23 -92 34 0 5 4 9 8 9 11 0 52 39 52 49 0 9 -49 6 -151 -10
-74 -12 -141 -47 -209 -109 -70 -65 -82 -67 -175 -32 -38 14 -70 19 -132 16
-87 -2 -171 -12 -185 -20 -4 -3 -8 0 -8 7 0 8 -4 8 -15 -1 -21 -18 -19 -5 9
43 13 23 22 49 21 57 -13 67 -58 103 -119 95 -33 -4 -35 -3 -23 15 9 16 9 24
-1 40 -6 11 -12 30 -12 42 0 30 -25 100 -32 92 -4 -3 -11 3 -17 14 -6 11 -7
22 -3 26 3 4 -2 4 -13 0 -11 -5 -14 -9 -7 -12 14 -4 17 -42 3 -42 -11 0 -34
-56 -35 -85 -1 -11 -3 -22 -6 -25 -3 -3 -11 -17 -17 -32 -12 -27 -11 -29 22
-42 19 -8 44 -13 55 -11 18 4 19 2 5 -19 -14 -21 -13 -25 5 -48 33 -43 80 -40
88 5 3 19 -9 22 -25 6 -13 -13 -33 -4 -33 15 0 17 59 46 79 39 81 -29 58 -130
-39 -172 -42 -19 -46 -19 -57 -4 -7 9 -13 24 -13 33 0 18 -55 88 -64 79 -3 -3
-8 -23 -12 -45 -3 -21 -8 -46 -9 -54 -2 -8 -4 -21 -4 -27 -2 -26 -31 -12 -78
38 -45 47 -56 67 -70 129 -19 89 14 200 81 266 29 29 119 94 129 94 3 0 4 -11
2 -25 -4 -39 12 -30 20 11 8 44 19 36 24 -19 1 -4 18 -23 38 -42 34 -32 114
-65 158 -65 9 0 26 -5 37 -11 12 -7 -5 19 -38 56 -60 68 -115 105 -146 98 -9
-2 -21 4 -27 15 -9 17 -4 22 37 40 26 12 65 26 87 31 22 6 43 11 47 12 118 32
332 48 354 27z m-581 -705 c3 -40 1 -63 -6 -63 -6 0 -7 -4 -4 -10 11 -17 -39
-5 -63 15 -2 2 3 16 11 32 14 26 26 83 27 128 1 46 31 -41 35 -102z"/>
<path d="M570 1409 c0 -5 5 -7 10 -4 6 3 10 8 10 11 0 2 -4 4 -10 4 -5 0 -10
-5 -10 -11z"/>
<path d="M780 909 c0 -15 -4 -17 -22 -10 -13 4 -41 7 -63 7 -33 -1 -41 -5 -43
-22 -2 -17 3 -23 24 -27 31 -6 56 1 49 13 -2 4 15 -2 39 -13 37 -17 46 -27 54
-58 5 -22 8 -55 6 -76 -5 -51 -52 -125 -86 -134 -32 -8 -33 -5 -14 33 21 40 3
43 -33 6 -54 -56 -40 -73 61 -77 146 -5 245 48 253 136 7 65 -17 93 -155 179
-33 21 -40 29 -27 32 27 6 20 19 -13 24 -24 4 -30 1 -30 -13z m163 -157 c37
-35 35 -72 -4 -117 -18 -20 -34 -33 -37 -31 -2 3 -12 2 -21 -3 -9 -5 -29 -11
-45 -15 l-28 -7 28 48 c24 40 29 59 29 115 l0 67 25 -16 c14 -8 37 -27 53 -41z"/>
</g>
</svg>
